<?xml version="1.0" encoding="UTF-8" standalone="no"?>
<!-- Created with Inkscape (http://www.inkscape.org/) -->

<svg
   width="16mm"
   height="16mm"
   viewBox="0 0 2.8070177 2.8070176"
   version="1.1"
   id="svg1"
   sodipodi:docname="half.svg"
   inkscape:version="1.3.2 (091e20e, 2023-11-25, custom)"
   xmlns:inkscape="http://www.inkscape.org/namespaces/inkscape"
   xmlns:sodipodi="http://sodipodi.sourceforge.net/DTD/sodipodi-0.dtd"
   xmlns="http://www.w3.org/2000/svg"
   xmlns:svg="http://www.w3.org/2000/svg">
  <sodipodi:namedview
     id="namedview1"
     pagecolor="#505050"
     bordercolor="#ffffff"
     borderopacity="1"
     inkscape:showpageshadow="0"
     inkscape:pageopacity="0"
     inkscape:pagecheckerboard="1"
     inkscape:deskcolor="#505050"
     inkscape:document-units="mm"
     inkscape:zoom="10.114481"
     inkscape:cx="29.808746"
     inkscape:cy="32.181581"
     inkscape:window-width="1920"
     inkscape:window-height="1121"
     inkscape:window-x="-9"
     inkscape:window-y="-9"
     inkscape:window-maximized="1"
     inkscape:current-layer="layer1" />
  <defs
     id="defs1">
    <mask
       maskUnits="userSpaceOnUse"
       id="mask-powermask-path-effect2">
      <path
         id="mask-powermask-path-effect2_box"
         style="fill:#ffffff;fill-opacity:1"
         d="M -0.68853807,-0.80120444 H 4.1184795 V 4.0058131 h -4.80701757 z" />
      <path
         style="fill:#000000;fill-opacity:1;stroke-width:0.168948"
         id="path2"
         d="m 1.7149707,2.7426553 a 1.1403509,1.1403509 0 0 1 -0.98757287,-0.5701755 1.1403509,1.1403509 0 0 1 0,-1.1403509 1.1403509,1.1403509 0 0 1 0.98757287,-0.5701755 v 1.1403509 z" />
    </mask>
  </defs>
  <g
     id="layer1"
     transform="translate(-0.31146194,-0.19879557)">
    <path
       style="fill:#ffffff;fill-opacity:1;stroke-width:0.168948"
       id="path1"
       mask="url(#mask-powermask-path-effect2)"
       d="M 3.1184795,1.6023043 A 1.4035088,1.4035088 0 0 1 1.7149707,3.0058131 1.4035088,1.4035088 0 0 1 0.31146193,1.6023043 1.4035088,1.4035088 0 0 1 1.7149707,0.19879556 1.4035088,1.4035088 0 0 1 3.1184795,1.6023043 Z" />
  </g>
</svg>
